<svg id="Layer_1" data-name="Layer 1" xmlns="http://www.w3.org/2000/svg" viewBox="0 0 62.08 14.08"><defs><style>.cls-1{fill:#fff;}.cls-2{fill:none;stroke:#fff;stroke-linecap:round;stroke-miterlimit:10;stroke-width:1.21px;}</style></defs><path class="cls-1" d="M45.15,28.77l2-2.61a2,2,0,0,0,.27-.47,1.29,1.29,0,0,0,.09-.45h0a.67.67,0,0,0-.2-.53.79.79,0,0,0-.56-.18.77.77,0,0,0-.55.2,1,1,0,0,0-.26.57h-.82a2,2,0,0,1,.29-.82,1.44,1.44,0,0,1,.55-.52,1.67,1.67,0,0,1,.79-.18,2,2,0,0,1,.85.17,1.21,1.21,0,0,1,.55.5,1.62,1.62,0,0,1,.18.79h0a1.79,1.79,0,0,1-.12.62,3,3,0,0,1-.35.63L46.2,28.71h2.12v.75H45.15Z" transform="translate(-0.94 -23.64)"/><path class="cls-1" d="M50.14,29.35a1.34,1.34,0,0,1-.54-.49,1.76,1.76,0,0,1-.27-.76h.78a.7.7,0,0,0,.25.48.79.79,0,0,0,.53.18.72.72,0,0,0,.59-.26,1.07,1.07,0,0,0,.21-.71v-.47a1.07,1.07,0,0,0-.21-.71.71.71,0,0,0-.59-.25.72.72,0,0,0-.39.11,1,1,0,0,0-.33.33h-.72v-3h2.86v.75H50.24v1.26a1.35,1.35,0,0,1,.33-.19,1.15,1.15,0,0,1,.37-.06,1.67,1.67,0,0,1,.83.2,1.27,1.27,0,0,1,.53.59,2.17,2.17,0,0,1,.18.93v.47a2.2,2.2,0,0,1-.19.93,1.29,1.29,0,0,1-.54.59,1.9,1.9,0,0,1-1.61,0Z" transform="translate(-0.94 -23.64)"/><path class="cls-1" d="M53.54,25.41h.83v.82h-.83Zm0,3.22h.83v.83h-.83Z" transform="translate(-0.94 -23.64)"/><path class="cls-1" d="M56.24,29.35a1.34,1.34,0,0,1-.54-.49,1.9,1.9,0,0,1-.27-.76h.79a.74.74,0,0,0,.24.48.8.8,0,0,0,.54.18.71.71,0,0,0,.58-.26,1.07,1.07,0,0,0,.21-.71v-.47a1.07,1.07,0,0,0-.21-.71.7.7,0,0,0-.58-.25.73.73,0,0,0-.4.11,1.29,1.29,0,0,0-.33.33h-.72v-3h2.87v.75H56.34v1.26a1.35,1.35,0,0,1,.33-.19A1.15,1.15,0,0,1,57,25.6a1.67,1.67,0,0,1,.83.2,1.27,1.27,0,0,1,.53.59,2.17,2.17,0,0,1,.18.93v.47a2.06,2.06,0,0,1-.19.93,1.29,1.29,0,0,1-.54.59,1.65,1.65,0,0,1-.85.2A1.67,1.67,0,0,1,56.24,29.35Z" transform="translate(-0.94 -23.64)"/><path class="cls-1" d="M59.65,28.77l2-2.61a2.48,2.48,0,0,0,.27-.47,1.29,1.29,0,0,0,.09-.45h0a.71.71,0,0,0-.2-.53.79.79,0,0,0-.56-.18.77.77,0,0,0-.55.2.89.89,0,0,0-.26.57h-.82a2,2,0,0,1,.29-.82,1.37,1.37,0,0,1,.55-.52,1.67,1.67,0,0,1,.79-.18,2,2,0,0,1,.85.17,1.14,1.14,0,0,1,.54.5,1.52,1.52,0,0,1,.19.79h0a1.79,1.79,0,0,1-.12.62,3,3,0,0,1-.35.63L60.7,28.71h2.12v.75H59.65Z" transform="translate(-0.94 -23.64)"/><path class="cls-1" d="M62.88,30.51H1.08a.13.13,0,0,0-.14.13v6.94a.14.14,0,0,0,.14.14h61.8a.14.14,0,0,0,.14-.14V30.64A.13.13,0,0,0,62.88,30.51ZM37,36.46H2.35V31.77H37Zm5,0H37.85V31.77H42Z" transform="translate(-0.94 -23.64)"/><line class="cls-2" x1="0.74" y1="0.6" x2="5.72" y2="5.59"/><line class="cls-2" x1="5.72" y1="0.6" x2="0.74" y2="5.59"/></svg>